<?xml version="1.0" encoding="UTF-8" standalone="no"?>
<svg width="173px" height="112px" viewBox="0 0 173 112" version="1.1" xmlns="http://www.w3.org/2000/svg" xmlns:xlink="http://www.w3.org/1999/xlink">
    <!-- Generator: Sketch 50.2 (55047) - http://www.bohemiancoding.com/sketch -->
    <title>acgi-logo</title>
    <desc>Created with Sketch.</desc>
    <defs></defs>
    <g id="acgi-logo" stroke="none" stroke-width="1" fill="none" fill-rule="evenodd">
        <g id="Group" transform="translate(32.000000, 0.000000)" fill="#FFFFFF">
            <g id="Group-3">
                <path d="M72.9954909,3.41633939 C49.1035152,-5.95229091 20.8611879,5.53483636 0.498909091,30.0153212 C19.7744485,16.2664727 42.7921455,11.6547879 63.4055758,19.7445818 C91.3472,30.6927515 106.697309,61.7452606 104.183079,96.0437333 C115.446885,54.9845333 102.7264,15.0738424 72.9954909,3.41633939" id="Fill-1"></path>
            </g>
            <path d="M40.6682182,65.8580364 C53.5190303,53.0038303 72.2902303,49.9058424 87.2004848,56.8288 C71.6901818,43.3378909 48.1640727,43.9569455 33.4058667,58.7137939 C18.8417939,73.2737939 18.0326788,96.3946667 30.9907394,111.896824 L31.2928,111.607661 C24.8280242,96.8338424 28.0271515,78.4943515 40.6682182,65.8580364" id="Fill-4"></path>
            <path d="M74.5641697,84.5810424 C72.0587636,81.0445576 68.0763152,78.7502545 63.5779879,78.7502545 C55.9979636,78.7502545 49.8535758,85.2326788 49.8535758,93.2308364 C49.8535758,97.4393212 51.5620848,101.218133 54.2752,103.866085 C56.7249455,106.256097 59.9892364,107.727709 63.5779879,107.727709 C71.1559758,107.727709 77.3017212,101.226958 77.3017212,93.2308364 C77.3017212,89.9814788 76.2726788,87.0022788 74.5641697,84.5810424" id="Fill-5"></path>
        </g>
    </g>
</svg>