<?xml version="1.0" encoding="UTF-8" standalone="no"?>
<svg width="540px" height="350px" viewBox="0 0 540 350" version="1.1" xmlns="http://www.w3.org/2000/svg" xmlns:xlink="http://www.w3.org/1999/xlink">
    <!-- Generator: Sketch 3.6.1 (26313) - http://www.bohemiancoding.com/sketch -->
    <title>deluxe-logo</title>
    <desc>Created with Sketch.</desc>
    <defs></defs>
    <g id="Page-1" stroke="none" stroke-width="1" fill="none" fill-rule="evenodd">
        <g id="deluxe-logo" fill="#FFFFFF">
            <path d="M138,109.949495 L138,35 L245.474747,35 L245.474747,35.1753493 L245.474747,35.1753493 C275.33608,35.8715284 315.074909,44.0557484 347.243216,70.4488242 C378.359279,95.9785663 402.444444,139.969649 402.444444,177.828283 C402.444444,242.039925 371.919325,296.282288 328.909091,314.264013 L328.909091,315 L262.761495,315 C287.9257,300.337735 312.426459,272.104704 313.606258,217.740491 C315.43939,133.271217 252.265397,114.663839 220.020202,110.662462 L220.020202,109.949495 L212.832454,109.949495 C205.92284,109.438071 201.626697,109.631866 201.626697,109.631866 L201.170744,109.949495 L138,109.949495 Z M138,155.20202 L138,281.060606 L214.363636,281.060606 L214.363636,282.312196 C230.528846,279.40218 254.570353,267.127619 261.948666,221.104601 C267.756122,184.879975 239.553068,165.502862 210.346283,155.20202 L138,155.20202 Z" id="Combined-Shape"></path>
        </g>
    </g>
</svg>