<?xml version="1.0" encoding="UTF-8" standalone="no"?>
<svg width="540px" height="350px" viewBox="0 0 540 350" version="1.1" xmlns="http://www.w3.org/2000/svg" xmlns:xlink="http://www.w3.org/1999/xlink">
    <!-- Generator: Sketch 3.7.2 (28276) - http://www.bohemiancoding.com/sketch -->
    <title>erickson-logo</title>
    <desc>Created with Sketch.</desc>
    <defs>
        <circle id="path-1" cx="270" cy="177" r="150"></circle>
        <mask id="mask-2" maskContentUnits="userSpaceOnUse" maskUnits="objectBoundingBox" x="-5" y="-5" width="310" height="310">
            <rect x="115" y="22" width="310" height="310" fill="white"></rect>
            <use xlink:href="#path-1" fill="black"></use>
        </mask>
    </defs>
    <g id="Page-1" stroke="none" stroke-width="1" fill="none" fill-rule="evenodd">
        <g id="erickson-logo">
            <use id="Oval-2-Copy-2" stroke="#FFFFFF" mask="url(#mask-2)" stroke-width="10" xlink:href="#path-1"></use>
            <g id="Group-2" transform="translate(150.000000, 131.000000)" fill="#FFFFFF">
                <path d="M124.412304,32.2384524 C124.658304,31.3663594 130.404161,11.9710106 132.167161,5.84891756 C132.881733,3.37217338 133.46159,1.04077803 130.697018,0.0989175612 C127.80359,-0.889454532 124.93359,5.72682454 122.297876,11.1105455 C115.38059,25.1803129 95.296447,54.790778 90.7220184,50.3605455 C88.8125898,48.5117083 90.1890184,41.3372897 91.9403041,37.0233362 C93.3928756,33.4419408 96.0461613,29.8547315 99.068447,28.0814757 C100.591304,27.1861269 102.272304,26.2617083 104.773304,27.168685 C106.471876,27.790778 107.678447,24.2675222 106.331304,22.540778 C105.17159,21.0872897 100.450733,21.1803129 98.3773041,21.7617083 C91.2315898,23.7384524 85.9308756,28.1163594 80.8351613,32.918685 C80.1147327,33.5872897 69.4195898,44.7500804 67.3051613,46.9768245 C67.1353041,47.1512431 66.9771613,47.3663594 67.0415898,47.0175222 C67.8440184,42.5698478 72.4008756,30.2849641 72.5648756,29.7733362 C73.2501613,27.5814757 68.3301613,25.6163594 67.0591613,27.5698478 C66.0165898,29.1570571 64.6050184,31.5872897 63.439447,34.1861269 C62.6721613,35.912871 61.8990184,37.8838013 61.2313041,39.4942664 C60.5050184,41.2675222 59.3511613,44.5582199 58.8415898,47.2151966 C58.3905898,49.5756617 58.4257327,52.3721734 59.5561613,53.9535687 C60.8271613,55.7558943 63.8318756,57.168685 66.2860184,54.5291501 C68.0490184,52.6454292 78.0647327,41.1803129 78.5801613,40.6221734 C80.5247327,38.5117083 84.3377327,34.8489176 84.7828756,35.0058943 C78.0471613,52.0872897 84.0858756,55.2210106 87.957447,56.0931036 C92.5553041,57.1163594 96.5498756,54.546592 98.125447,53.2384524 C103.61359,48.6396152 109.587876,39.8605455 111.333304,37.4535687 C112.323161,36.0931036 115.427447,31.412871 115.13459,32.6454292 C114.794876,34.0233362 111.889733,48.162871 111.514876,51.0000804 C111.227876,53.1396152 110.882304,55.0175222 112.446161,56.1803129 C113.980733,57.3256617 117.413018,58.4593827 118.268161,55.8256617 C119.709018,51.4012431 121.57159,43.0989176 122.016733,40.9535687 C122.051876,40.8082199 122.151447,40.7558943 122.35059,40.8024059 C124.699304,41.5175222 142.93259,47.0931036 144.28559,47.5000804 C147.60659,48.4710106 150.447304,46.0117083 149.896733,44.4535687 C148.660876,40.8954292 132.553733,36.9535687 128.893018,36.1221734 C128.770018,36.0931036 128.576733,35.9768245 128.887161,35.7733362 C131.827447,33.2733362 139.822447,26.8779873 140.96459,25.9012431 C144.543304,22.8431036 142.64559,21.0117083 141.386304,20.424499 C139.476876,19.540778 135.775161,22.3547315 134.422161,23.4651966 C131.101161,26.2035687 124.886733,32.1803129 124.599733,32.4535687 C124.435733,32.6105455 124.342018,32.4651966 124.412304,32.2384524" id="Fill-12"></path>
                <path d="M31.8147929,1.08164249 C34.4095072,0.40722389 38.0819358,-0.435799366 40.5243643,0.261875052 C40.6180786,0.285130866 43.7867929,0.820014587 43.0195072,3.94792156 C42.2697929,6.91303784 36.1900786,10.9421076 33.8882215,9.53513087 C33.1267929,9.06420063 33.5836501,8.23280529 33.6129358,7.62234017 C29.4016501,8.91303784 19.8779358,12.0060611 19.7256501,12.0642006 C19.5616501,12.1223402 19.4855072,12.1921076 19.4562215,12.2793169 C18.8705072,13.8083867 14.8935072,23.8083867 13.5522215,28.395596 C13.4819358,28.6107123 13.4116501,28.7618751 13.6986501,28.6572239 C15.8892215,27.8142006 29.1790786,22.6746658 31.6800786,22.895596 C33.3200786,23.0525727 33.4313643,27.0525727 32.2775072,28.0874564 C30.1337929,30.017689 13.5639358,36.5351309 11.5490786,37.3200146 C11.4260786,37.3665262 11.3792215,37.4362937 11.3440786,37.5758285 C11.1976501,38.1107123 6.58222148,54.3839681 10.0555072,53.0816425 C14.0032215,51.6048983 23.1286501,47.9130378 25.1845072,47.0351309 C26.7425072,46.3665262 34.2220786,43.8025727 35.4286501,43.5060611 C36.2252215,39.1630378 40.8172215,23.4537355 41.0749358,22.4944332 C42.7266501,16.2851309 44.1089358,15.7095495 45.2159358,15.5409448 C46.2350786,15.3839681 48.3787929,15.3316425 49.1343643,16.389782 C50.3467929,18.0816425 47.1077929,26.5758285 47.5763643,26.5758285 C47.9570786,26.5758285 58.0782215,11.9653634 63.9763643,17.0060611 C65.3410786,18.1630378 65.4113643,19.9886192 64.1872215,22.3258285 C63.3965072,23.8490844 61.6100786,25.5583867 59.6655072,26.5467588 C58.4413643,27.1688518 55.7880786,27.6107123 56.2507929,25.0758285 C55.4659358,25.3490844 54.4467929,26.0642006 53.5096501,26.7153634 C49.3862215,29.6223402 47.0082215,33.2967588 44.8293643,38.3200146 C44.2026501,39.8025727 43.3533643,42.7095495 42.8730786,44.8607123 C42.3400786,47.1979216 42.2229358,49.8839681 41.7602215,52.3548983 C41.4322215,54.1281541 37.6367929,53.6746658 35.4110786,53.3142006 C33.7710786,53.0409448 34.3216501,51.7502471 34.3040786,50.4479216 C33.5075072,50.3025727 22.1095072,55.767689 20.3406501,56.5816425 C18.7065072,57.3316425 10.5182215,61.1921076 7.77122148,61.0816425 C4.69036434,60.9653634 2.47636434,59.1688518 1.27565005,57.5293169 C0.689935767,56.7386192 -1.11406423,54.517689 1.00036434,42.8083867 C1.57436434,39.639782 2.20693577,36.2502471 3.21436434,32.8548983 C4.08122148,29.889782 5.00665005,26.7444332 6.11365005,23.7211774 C7.24407862,20.6165262 8.54436434,17.7909448 9.70993577,15.1223402 C10.9809358,12.2095495 11.7657929,10.0351309 13.8333643,7.69210761 C16.3870786,4.79094482 31.8147929,1.08164249 31.8147929,1.08164249" id="Fill-14"></path>
                <path d="M190.079646,39.8820588 C195.515074,29.3006634 189.482217,27.9634541 186.817217,31.4053146 C183.28536,35.9518262 181.692217,42.23671 181.621931,45.980896 C181.52236,51.0913611 186.284217,47.2715937 190.079646,39.8820588 M197.699788,29.5041518 C198.349931,31.8413611 198.133217,35.9983379 194.607217,41.8878727 C190.524788,48.6785704 186.518503,51.7599658 183.185788,52.7832216 C180.245503,53.6843844 172.642931,52.9634541 173.673788,43.0797332 C173.808503,42.23671 170.294217,45.5855472 168.665931,48.2657797 C167.62336,49.98671 164.05636,55.4692681 154.210503,58.9401983 C152.74036,59.4576402 151.076931,59.2599658 150.614217,57.8006634 C150.192503,56.4634541 150.204217,54.7483379 151.885217,53.4053146 C153.02736,52.4925239 158.989931,48.6553146 159.640074,45.8297332 C160.061788,44.0041518 156.488931,41.7657797 154.638074,40.8995006 C147.867217,37.7076402 146.853931,35.4111286 146.496646,32.9460123 C146.104217,30.1901983 147.170217,25.3239193 156.078931,20.5041518 C160.085217,18.3355472 167.763931,16.5564774 171.635503,17.9169425 C178.804646,20.4460123 170.622217,25.6204309 167.881074,26.3820588 C166.082931,26.8878727 165.104788,26.3181053 165.303931,24.4169425 C163.207074,24.5390355 154.058217,27.4169425 155.65136,31.3006634 C156.541646,33.48671 163.60536,36.1669425 168.07436,42.5797332 C168.285217,42.8355472 168.44336,43.0099658 168.753788,42.7890355 C171.64136,41.0215937 174.733931,35.8646169 174.810074,35.73671 C176.701931,32.5157797 179.284931,28.8413611 181.036217,27.0797332 C184.585646,23.5041518 187.186217,22.7715937 189.611074,23.6960123 C191.040217,24.2483379 191.942217,26.0448495 194.02736,26.0913611 C194.964503,26.1204309 196.106646,25.3995006 197.313217,24.8239193 C204.72836,21.3064774 210.14036,20.5215937 212.530074,21.3471751 C217.057646,22.9169425 214.984217,28.2599658 214.603503,30.0390355 C214.263788,31.6378727 212.547646,37.3297332 212.278217,38.1436867 C211.440646,40.6960123 216.061931,33.6669425 218.024074,31.1669425 C219.195503,29.6727565 220.355217,28.1204309 221.872217,26.9401983 C222.785931,26.230896 224.970646,25.3471751 226.66336,26.0099658 C229.61536,27.1611286 228.842217,31.5971751 228.889074,33.2832216 C228.924217,34.9692681 226.891788,48.2018262 230.944931,50.358803 C234.810646,52.4169425 240.292931,47.8355472 243.455788,45.6669425 C247.479646,42.9169425 244.100074,49.1320588 239.215217,52.8413611 C234.851646,56.1495006 231.120646,56.5506634 228.889074,56.1204309 C226.440788,55.6611286 222.39936,53.9285704 221.45636,48.5041518 C220.653931,43.9285704 220.952646,37.980896 221.790217,33.0971751 C222.03036,31.6727565 219.599646,35.3471751 218.744503,36.5274076 C218.316931,37.102989 209.466788,51.4401983 209.273503,51.73671 C208.365646,53.1611286 205.823646,57.1495006 203.94936,57.1495006 C202.461646,57.1495006 201.711931,56.1378727 201.272646,54.980896 C201.061788,54.4227565 200.95636,53.0390355 200.985646,52.3064774 C201.055931,50.7599658 201.57136,48.9401983 202.127788,47.0913611 C202.619788,45.4576402 207.241074,31.5506634 207.457788,30.8878727 C207.662788,30.2832216 209.091931,26.0448495 208.318788,25.6727565 C207.627646,25.3355472 202.865788,26.5390355 200.610788,27.4983379 C199.650217,27.9053146 198.513931,28.3471751 198.062931,28.6960123 C197.611931,29.0506634 197.699788,29.5041518 197.699788,29.5041518" id="Fill-16"></path>
                <polygon id="Fill-18" points="23.8327143 98.1337209 23.8327143 97.7383721 24.231 97.7383721 23.8327143 97.7383721 23.8327143 98.1337209 23.4285714 98.1337209 23.4285714 69.7674419 30.2052857 69.7674419 30.2052857 91.6453488 46.3885714 91.6453488 46.3885714 98.1337209"></polygon>
                <polygon id="Fill-20" points="58.9814286 98.255814 58.9814286 97.8604651 59.3797143 97.8604651 58.9814286 97.8604651 58.9814286 98.255814 58.5714286 98.255814 58.5714286 69.7674419 65.3891429 69.7674419 65.3891429 98.255814"></polygon>
                <polygon id="Fill-22" points="95.9634286 98.1337209 95.9634286 97.7325581 96.3207143 97.5581395 95.9634286 97.7325581 95.9634286 98.1337209 95.7057143 98.1337209 82 69.7674419 89.4444286 69.7674419 97.867 87.1918605 106.236857 69.7674419 113.780857 69.7674419 99.958 98.1337209"></polygon>
                <polygon id="Fill-24" points="129.261286 98.2616279 129.261286 97.8604651 129.665429 97.8604651 129.261286 97.8604651 129.261286 98.2616279 128.857143 98.2616279 128.857143 69.7674419 135.698286 69.7674419 135.698286 98.2616279"></polygon>
                <polygon id="Fill-26" points="172.692 98.1046512 172.697857 97.7034884 173.002429 97.4418605 172.697857 97.7034884 172.692 98.1046512 172.504571 98.0930233 159.056571 82.7209302 159.056571 98.1337209 152.285714 98.1337209 152.285714 69.7674419 156.614143 69.7674419 170.003571 85.1627907 170.003571 69.7674419 176.756857 69.7674419 176.756857 98.1511628"></polygon>
                <path d="M208.145304,99.2874677 L207.952019,99.2874677 L207.870019,99.2874677 C203.734876,99.2874677 200.091733,97.868863 197.379876,95.0781654 C194.650447,92.3049096 193.279876,88.6537468 193.285733,84.5142119 C193.279876,80.4560724 194.673876,76.8223514 197.444304,74.0258398 C200.144447,71.2002584 203.811019,69.7642119 207.922733,69.7700258 L207.96959,69.7700258 C208.039876,69.7642119 208.086733,69.7700258 208.127733,69.7700258 C212.825162,69.7642119 216.837304,71.6595607 219.543304,75.1944444 L219.806876,75.5200258 L214.066876,79.2060724 L213.850162,78.9153747 C213.364019,78.2932817 212.754876,77.7700258 211.975876,77.3281654 C210.734162,76.6421189 209.451447,76.2932817 207.987162,76.2932817 C205.503733,76.3223514 203.811019,77.0490956 202.294019,78.6479328 C200.853162,80.1944444 200.173733,82.0258398 200.156162,84.5083979 C200.173733,87.0490956 200.864876,88.9037468 202.294019,90.4211886 C203.811019,92.0200258 205.503733,92.7409561 207.975447,92.7874677 C210.704876,92.7351421 212.596733,91.8165375 214.236733,89.5839793 L214.236733,88.3223514 L207.916876,88.3223514 L207.506876,88.3223514 L207.506876,81.9095607 L220.995876,81.9095607 L220.995876,91.5549096 L220.949019,91.6421189 L220.785019,91.9386305 C218.172733,96.7177003 213.697876,99.2874677 208.180447,99.2874677 L208.145304,99.2874677 Z" id="Fill-28"></path>
            </g>
        </g>
    </g>
</svg>