<?xml version="1.0" encoding="UTF-8" standalone="no"?>
<svg width="540px" height="350px" viewBox="0 0 540 350" version="1.1" xmlns="http://www.w3.org/2000/svg" xmlns:xlink="http://www.w3.org/1999/xlink">
    <!-- Generator: Sketch 3.6.1 (26313) - http://www.bohemiancoding.com/sketch -->
    <title>pbs-logo</title>
    <desc>Created with Sketch.</desc>
    <defs></defs>
    <g id="Page-1" stroke="none" stroke-width="1" fill="none" fill-rule="evenodd">
        <g id="pbs-logo" fill="#FFFFFF">
            <g id="pbs_logo.499bc264d7a0" transform="translate(20.000000, 35.000000)">
                <g id="pbs_logo" transform="translate(0.000000, 0.000000)">
                    <path d="M139.805825,279.61165 C217.01845,279.61165 279.61165,217.01845 279.61165,139.805825 C279.61165,62.5932 217.01845,2.84217094e-14 139.805825,2.84217094e-14 C62.5932,2.84217094e-14 0,62.5932 0,139.805825 C0,217.01845 62.5932,279.61165 139.805825,279.61165 Z M154.126214,61.8932039 L111.893204,61.8932039 C77.184466,61.8932039 48.7864078,86.1650485 48.7864078,122.087379 C48.7864078,152.184466 66.9902913,173.786408 94.1747573,177.912621 L94.1747573,219.902913 L150.485437,219.902913 L150.485437,179.61165 L158.252427,179.61165 C167.475728,178.640777 173.543689,172.572816 173.786408,164.07767 L173.786408,140.776699 L189.07767,140.776699 L154.126214,61.8932039 Z M142.961165,129.61165 C135.436893,129.61165 129.126214,123.300971 129.126214,115.776699 C129.126214,108.252427 135.436893,101.941748 142.961165,101.941748 C150.485437,101.941748 156.796117,108.252427 156.796117,115.776699 C156.796117,123.543689 150.728155,129.61165 142.961165,129.61165 Z M201.456311,61.8932039 L178.640777,61.8932039 L213.106796,140.776699 L197.330097,140.776699 L197.330097,161.650485 C197.330097,174.271845 191.990291,179.854369 174.757282,179.61165 L174.757282,219.902913 L197.330097,219.902913 L197.330097,179.61165 L204.854369,179.61165 C211.407767,179.854369 220.38835,174.514563 220.38835,164.07767 L220.38835,140.776699 L235.679612,140.776699 L201.456311,61.8932039 Z" id="Combined-Shape"></path>
                    <path d="M324.271845,114.07767 L314.563107,114.07767 L314.563107,101.941748 L346.84466,101.941748 C364.320388,101.941748 374.271845,110.92233 374.271845,125 C374.271845,139.320388 363.834951,148.300971 347.330097,148.300971 L338.592233,148.300971 L338.592233,166.504854 L350,166.504854 L350,178.640777 L314.563107,178.640777 L314.563107,166.504854 L324.514563,166.504854 L324.514563,114.07767 L324.271845,114.07767 Z M338.592233,136.165049 L348.058252,136.165049 C356.067961,136.165049 360.436893,131.067961 360.436893,125 C360.436893,118.68932 355.825243,113.834951 348.058252,113.834951 L338.592233,113.834951 L338.592233,136.165049 L338.592233,136.165049 Z M388.106796,114.07767 L379.368932,114.07767 L379.368932,101.941748 L410.194175,101.941748 C429.368932,101.941748 435.436893,113.349515 435.436893,121.84466 C435.436893,128.883495 431.553398,134.708738 426.213592,137.378641 C433.980583,140.533981 438.349515,148.543689 438.349515,155.582524 C438.349515,172.330097 425.242718,179.126214 412.621359,179.126214 L378.398058,179.126214 L378.398058,166.990291 L388.349515,166.990291 L388.349515,114.07767 L388.106796,114.07767 Z M402.184466,166.747573 L411.165049,166.747573 C418.446602,166.747573 423.543689,162.621359 423.543689,155.825243 C423.543689,150 419.660194,144.902913 411.165049,144.902913 L402.184466,144.902913 L402.184466,166.747573 L402.184466,166.747573 Z M402.184466,132.76699 L410.679612,132.76699 C416.990291,132.76699 421.359223,129.126214 421.359223,123.300971 C421.359223,117.718447 417.23301,114.07767 410.679612,114.07767 L402.184466,114.07767 L402.184466,132.76699 L402.184466,132.76699 Z M483.495146,113.834951 C481.067961,112.864078 477.669903,111.893204 474.271845,111.893204 C464.805825,111.893204 461.893204,117.23301 461.893204,121.601942 C461.893204,127.184466 465.533981,128.883495 469.902913,130.097087 L478.15534,132.281553 C488.106796,135.194175 499.271845,138.834951 499.271845,154.61165 C499.271845,169.174757 490.533981,179.61165 471.116505,179.61165 C463.592233,179.61165 455.825243,178.640777 446.84466,175.485437 L446.84466,155.339806 L460.92233,155.339806 L460.92233,165.291262 C464.563107,166.990291 468.446602,167.23301 472.330097,167.23301 C480.582524,167.23301 484.466019,162.864078 484.466019,157.038835 C484.466019,153.15534 482.524272,150.242718 473.300971,147.572816 L465.776699,145.38835 C451.699029,141.262136 447.087379,135.194175 447.087379,123.543689 C447.087379,111.407767 454.61165,100.728155 473.786408,100.728155 C482.038835,100.728155 490.291262,102.184466 496.116505,104.854369 L496.116505,123.058252 L483.252427,123.058252 L483.252427,113.834951 L483.495146,113.834951 Z" id="pbs"></path>
                </g>
            </g>
        </g>
    </g>
</svg>