<?xml version="1.0" encoding="UTF-8" standalone="no"?>
<svg width="540px" height="350px" viewBox="0 0 540 350" version="1.1" xmlns="http://www.w3.org/2000/svg" xmlns:xlink="http://www.w3.org/1999/xlink">
    <!-- Generator: Sketch 3.6.1 (26313) - http://www.bohemiancoding.com/sketch -->
    <title>regent-logo</title>
    <desc>Created with Sketch.</desc>
    <defs></defs>
    <g id="Page-1" stroke="none" stroke-width="1" fill="none" fill-rule="evenodd">
        <g id="regent-logo" fill="#FFFFFF">
            <g id="Group" transform="translate(145.000000, 14.000000)">
                <path d="M109.762998,53.8222958 L164.231445,0 L164.231445,65.3014428 L91,132.188162 L91.0214844,72.3414819 L108.29177,55.276071 C53.3178053,28.8902802 13.3789062,66.1875852 13.3789062,67.140625 C13.3789062,68.1728516 4.86132812,59.839844 4.86132812,59.839844 C4.86132812,59.839844 8.33349366,56.9280048 16.1396484,52.9843752 C22.1139071,49.9662102 29.4726935,46.2168895 46.6708984,43.4658203 C71.2728997,39.5304207 95.1635267,47.3296931 109.762998,53.8222958 Z M109.762998,53.8222958 L108.29177,55.276071 C112.805202,57.442399 117.419996,60.0379817 122.122354,63.1181882 L122.122354,63.1181882 C121.934049,63.4303042 121.76819,63.7419342 121.622559,64.0446777 C120.120425,67.1673545 120.731445,70.1933594 120.731445,70.1933594 C120.731445,70.1933594 122.806146,70.9481331 126.224365,67.673584 C128.45386,65.5377958 132.449395,59.2585449 128.666016,59.2585449 C126.550064,59.2585449 124.971229,60.0201755 123.802129,61.0615697 C122.452435,60.2321822 117.368416,57.2045386 109.762998,53.8222958 Z" id="Combined-Shape"></path>
                <path d="M193.516704,242.822296 L248.82373,189 L248.82373,254.301443 L174.464836,321.188162 L174.486652,261.341482 L192.022825,244.276071 C136.202498,217.89028 95.6487121,255.187585 95.6487121,256.140625 C95.6487121,257.172852 87,248.839844 87,248.839844 C87,248.839844 90.5256219,245.928005 98.4519579,241.984375 C104.518194,238.96621 111.990274,235.21689 129.453258,232.46582 C154.434024,228.530421 178.692463,236.329693 193.516704,242.822296 Z M193.516704,242.822296 L192.022825,244.276071 C196.605745,246.442399 201.291587,249.037982 206.066341,252.118188 L206.066341,252.118188 C205.875136,252.430304 205.706724,252.741934 205.55885,253.044678 C204.033591,256.167354 204.654018,259.193359 204.654018,259.193359 C204.654018,259.193359 206.76066,259.948133 210.231505,256.673584 C212.495325,254.537796 216.552374,248.258545 212.710746,248.258545 C210.562218,248.258545 208.959076,249.020176 207.771977,250.06157 C206.401503,249.232182 201.239213,246.204539 193.516704,242.822296 Z" id="Combined-Shape-Copy" transform="translate(167.911865, 255.094081) rotate(-180.000000) translate(-167.911865, -255.094081) "></path>
                <path d="M219.310975,146.753063 L166.293945,100.69043 L166.696289,165.175781 L250.292969,232.74707 L249.706055,173.161133 L221.450479,148.611923 C225.113169,141.223524 228.741321,131.959316 230.714844,122.444824 C234.883742,102.34627 231.346103,81.1011512 229.557617,76.3071289 C223.479906,60.0158709 213.149414,47.6000977 213.149414,47.6000977 C213.149414,47.6000977 212.039965,50.3807562 211.058105,51.0405273 C209.754646,51.9164008 206.293457,52.2070312 206.293457,52.2070312 L208.993652,56.4223633 L205.951172,57.6826172 C205.951172,57.6826172 220.255372,68.7329099 227.627441,99.2646484 C230.398449,110.740892 228.720635,124.000514 225.003906,134.319825 C223.352571,138.904673 221.353481,143.086641 219.310975,146.753063 Z M219.310975,146.753063 L221.450479,148.611923 C217.284721,157.015115 213.074287,162.991838 211.202693,164.150588 C211.741325,164.665728 212.280897,165.247149 212.803711,165.901855 C216.183105,170.133789 214.172852,172.535156 212.961426,172.019043 C212.398171,171.779075 206.98773,170.059511 205.344727,167.476074 C203.454027,164.503163 205.344727,160.5 205.344727,160.5 C205.344727,160.5 206.750438,160.903122 208.59508,162.092068 C210.388681,160.062188 214.948841,154.583358 219.310975,146.753063 Z" id="Combined-Shape"></path>
                <path d="M28.8144807,182.578775 L87,229 L86.3921177,168.085975 L0,94 L0.416718014,159.922641 L27.0479922,181.169445 C25.3695843,184.473493 23.8173628,188.030013 22.6464846,191.65918 C17.196197,208.552485 17.3976346,222.877521 17.2246094,232.359864 C16.8587088,252.412402 37.2177734,278.164062 37.2177734,278.164062 C37.2177734,278.164062 39.4560547,274.589844 44.1987305,273.111816 C48.411315,271.798989 3.7951498,228.942294 28.8144807,182.578775 Z M28.8144807,182.578775 L27.0479922,181.169445 C30.5763252,174.223708 34.6623017,168.393696 36.9355122,165.349987 L36.9355122,165.349987 C36.1788943,164.114519 35.698672,162.410278 37.1040039,160.770508 C39.7441406,157.689941 48.3388672,169.440918 45.9428711,171.711914 C44.1980963,173.365663 41.0362164,170.196647 39.4463376,168.351829 C38.6971728,168.810415 37.9907156,169.22021 37.2177731,170.161621 C33.8112929,174.31057 31.03791,178.45852 28.8144807,182.578775 Z" id="Combined-Shape"></path>
            </g>
        </g>
    </g>
</svg>