<?xml version="1.0" encoding="UTF-8"?>
<svg width="147px" height="130px" viewBox="0 0 147 130" version="1.1" xmlns="http://www.w3.org/2000/svg" xmlns:xlink="http://www.w3.org/1999/xlink">
    <title>sd-logo</title>
    <g id="sd-logo" stroke="none" stroke-width="1" fill="none" fill-rule="evenodd">
        <g id="Group" transform="translate(28.000000, 25.000000)" fill="#FFFFFF">
            <path d="M59.7795635,69.8291667 L30.8087302,69.8291667 L21.0441469,79.44375 L16.0212302,79.44375 L20.6128969,69.8291667 L17.4462302,69.8291667 C10.3253969,69.8291667 5.55456354,64.1958333 4.59206354,57.6166667 L0.0233135427,26.48125 C-0.114186457,25.3541667 0.358730209,24.8 1.38373021,24.7520833 L20.2045635,24.7541667 C21.2066469,24.78125 21.7691469,25.3395833 21.9733135,26.3291667 L24.8191469,45.7291667 C25.1128969,47.40625 26.0587302,48.0666667 27.4337302,48.0645833 L63.1566469,48.0645833 C64.5295635,48.0666667 65.4774802,47.40625 65.7712302,45.7291667 L68.6170635,26.3291667 C68.8212302,25.3395833 69.3837302,24.78125 70.3858135,24.7541667 L89.2066469,24.7520833 C90.2316469,24.8 90.7024802,25.3541667 90.5670635,26.48125 L85.9983135,57.6166667 C85.0128969,64.3458333 80.3024802,69.8291667 73.1441469,69.8291667 L69.9774802,69.8291667 L74.5670635,79.44375 L69.5462302,79.44375 L59.7795635,69.8291667" id="Fill-18"></path>
            <path d="M31.6170635,40.59375 L29.3462302,25.1145833 C29.3378969,25.0583333 29.3274802,25.0041667 29.3170635,24.9479167 C28.3712302,20.3541667 24.9358135,17.41875 20.3524802,17.2854167 C20.3233135,17.2833333 20.2962302,17.2833333 20.2670635,17.2833333 L16.5670635,17.2833333 L17.9087302,7.575 C18.0045635,6.89166667 18.8545635,4.49791667 25.8441469,2.40625 C31.0253969,0.854166667 37.9420635,0 45.3253969,0 C52.6983135,0 59.6024802,0.854166667 64.7649802,2.40208333 C71.7358135,4.49166667 72.5858135,6.88958333 72.6795635,7.575 L74.0233135,17.2833333 L70.3233135,17.2833333 C70.2941469,17.2833333 70.2649802,17.2833333 70.2378969,17.2854167 C65.6545635,17.41875 62.2191469,20.3541667 61.2733135,24.9479167 C61.2608135,25.0041667 61.2524802,25.0583333 61.2441469,25.1145833 L58.9733135,40.59375 L31.6170635,40.59375" id="Fill-20"></path>
        </g>
    </g>
</svg>