<?xml version="1.0" encoding="UTF-8" standalone="no"?>
<svg width="540px" height="350px" viewBox="0 0 540 350" version="1.1" xmlns="http://www.w3.org/2000/svg" xmlns:xlink="http://www.w3.org/1999/xlink">
    <!-- Generator: Sketch 3.7.2 (28276) - http://www.bohemiancoding.com/sketch -->
    <title>seddon-logo</title>
    <desc>Created with Sketch.</desc>
    <defs></defs>
    <g id="Page-1" stroke="none" stroke-width="1" fill="none" fill-rule="evenodd">
        <g id="seddon-logo" fill="#FFFFFF">
            <path d="M226.168458,210.102007 C225.206384,213.631484 224.884865,216.192337 224.884865,217.793452 C224.884865,237.350697 239.658517,248.889833 263.434985,248.889833 C284.310191,248.889833 299.730823,238.311599 299.730823,223.243861 C299.730823,215.232308 294.910817,209.142853 285.59393,205.292249 C282.384729,204.013425 267.926317,198.883561 254.438156,194.073802 L249.617858,192.473998 C233.555065,187.344134 227.451904,185.102659 220.707458,182.216017 C197.579139,171.315055 185.374132,153.366357 185.374132,129.006931 C185.374132,116.506164 189.23002,103.685728 195.654553,93.1066211 C212.038865,66.8195619 243.193179,54 289.77119,54 C347.591989,54 381,77.3986692 381,117.787174 C381,120.667987 380.358715,124.516843 379.075414,131.246657 L317.076917,131.246657 L317.076917,125.797852 C317.076917,108.489221 305.83413,98.8768445 284.95133,98.8768445 C266.002024,98.8768445 253.475498,107.528756 253.475498,120.348755 C253.475498,127.086437 257.645604,132.206977 266.642871,136.376959 C270.820278,138.304884 274.34939,139.906145 292.986961,145.676223 C306.796203,150.165 316.435923,153.687046 325.104663,157.213901 C354.977282,169.395436 368.473182,186.383668 368.473182,211.703122 C368.473182,222.602773 364.617294,236.390377 358.835214,247.282452 C352.73147,257.86185 344.704162,267.479618 335.38523,274.530268 C315.472097,290.237928 293.307604,296.328258 256.362304,296.328258 C195.0121,296.328258 160,270.361306 160,224.84993 C160,220.681842 160.321081,217.153531 161.283301,210.102007 L226.168458,210.102007 L226.168458,210.102007 Z" id="Fill-82"></path>
        </g>
    </g>
</svg>