<?xml version="1.0" encoding="UTF-8" standalone="no"?>
<svg width="540px" height="350px" viewBox="0 0 540 350" version="1.1" xmlns="http://www.w3.org/2000/svg" xmlns:xlink="http://www.w3.org/1999/xlink">
    <!-- Generator: Sketch 3.7.2 (28276) - http://www.bohemiancoding.com/sketch -->
    <title>tdc-logo</title>
    <desc>Created with Sketch.</desc>
    <defs></defs>
    <g id="Page-1" stroke="none" stroke-width="1" fill="none" fill-rule="evenodd">
        <g id="tdc-logo">
            <g id="3tulips" transform="translate(177.000000, 19.000000)">
                <path d="M41.4671022,11.740234 C41.4671022,11.740234 50.0041683,24.7871064 48.2971463,44.669383 C46.5896353,64.5511702 34.6370581,110.553617 86.9185812,117.361128 C139.199615,124.170106 142.044978,75.3464894 141.476297,74.2062766 C140.907126,73.0670426 136.950317,13.9917872 147.168,15.1305319 C147.168,15.1305319 112.503375,20.2575745 117.626397,26.4954681 C122.721058,32.7348298 101.716521,18.5487234 111.934204,4.90482979 C111.934204,4.90482979 80.1149419,9.46225532 76.7008978,18.5487234 C76.7008978,18.5487234 67.0518958,-1.33306383 63.0686814,0.375297872 C59.084,2.08365957 56.2386373,15.1305319 56.2386373,15.1305319 C56.2386373,15.1305319 43.1746132,4.90482979 41.4671022,11.740234" id="Fill-2" fill="#FFFFFF"></path>
                <path d="M41.4671022,11.740234 C41.4671022,11.740234 50.0041683,24.7871064 48.2971463,44.669383 C46.5896353,64.5511702 34.6370581,110.553617 86.9185812,117.361128 C139.199615,124.170106 142.044978,75.3464894 141.476297,74.2062766 C140.907126,73.0670426 136.950317,13.9917872 147.168,15.1305319 C147.168,15.1305319 112.503375,20.2575745 117.626397,26.4954681 C122.721058,32.7348298 101.716521,18.5487234 111.934204,4.90482979 C111.934204,4.90482979 80.1149419,9.46225532 76.7008978,18.5487234 C76.7008978,18.5487234 67.0518958,-1.33306383 63.0686814,0.375297872 C59.084,2.08365957 56.2386373,15.1305319 56.2386373,15.1305319 C56.2386373,15.1305319 43.1746132,4.90482979 41.4671022,11.740234 L41.4671022,11.740234 Z" id="Stroke-3" stroke="#FFFFFF" stroke-width="5" stroke-linecap="round" stroke-linejoin="round"></path>
                <path d="M93.7486253,115.733511 L93.7486253,317.618213" id="Fill-4" fill="#FFFFFF"></path>
                <path d="M93,112.175781 L93,336.70549" id="Stroke-5" stroke="#FFFFFF" stroke-width="5" stroke-linecap="round" stroke-linejoin="round"></path>
                <path d="M0.812985972,119.477617 C0.812985972,119.477617 6.93792385,128.616936 5.7189018,142.505021 C4.47200802,156.419532 -4.09292986,188.589681 33.4449299,193.336 C70.9827896,198.109234 73.0413868,163.960596 72.6091303,163.174191 C72.2013226,162.359404 69.3559599,121.07734 76.7008978,121.863745 C76.7008978,121.863745 51.8202325,125.443915 55.4792545,129.810489 C59.1646814,134.178532 44.0689539,124.250851 51.4138918,114.730809 C51.4138918,114.730809 28.5668858,117.90383 26.100481,124.250851 C26.100481,124.250851 19.1613948,110.362766 16.316521,111.55583 C13.4701804,112.750851 11.4106052,121.863745 11.4106052,121.863745 C11.4106052,121.863745 2.03298597,114.730809 0.812985972,119.477617" id="Fill-6" fill="#FFFFFF"></path>
                <path d="M0.812985972,119.477617 C0.812985972,119.477617 6.93792385,128.616936 5.7189018,142.505021 C4.47200802,156.419532 -4.09292986,188.589681 33.4449299,193.336 C70.9827896,198.109234 73.0413868,163.960596 72.6091303,163.174191 C72.2013226,162.359404 69.3559599,121.07734 76.7008978,121.863745 C76.7008978,121.863745 51.8202325,125.443915 55.4792545,129.810489 C59.1646814,134.178532 44.0689539,124.250851 51.4138918,114.730809 C51.4138918,114.730809 28.5668858,117.90383 26.100481,124.250851 C26.100481,124.250851 19.1613948,110.362766 16.316521,111.55583 C13.4701804,112.750851 11.4106052,121.863745 11.4106052,121.863745 C11.4106052,121.863745 2.03298597,114.730809 0.812985972,119.477617 L0.812985972,119.477617 Z" id="Stroke-7" stroke="#FFFFFF" stroke-linecap="round" stroke-linejoin="round"></path>
                <path id="Fill-8" fill="#FFFFFF"></path>
                <path d="M40,188.799993 L40,345.755319" id="Stroke-9" stroke="#FFFFFF" stroke-width="5" stroke-linecap="round" stroke-linejoin="round"></path>
                <path d="M117.355014,158.453809 C117.355014,158.453809 122.152377,165.614638 121.203271,176.518596 C120.228248,187.422553 113.506758,212.675085 142.994084,216.418213 C172.481411,220.160851 174.10824,193.362915 173.782581,192.738489 C173.458389,192.115043 171.208601,159.701191 176.980986,160.325128 C176.980986,160.325128 157.412577,163.119383 160.313194,166.564489 C163.186429,169.981213 151.341916,162.197915 157.11479,154.710681 C157.11479,154.710681 139.145828,157.205936 137.221699,162.197915 C137.221699,162.197915 131.773018,151.293957 129.524697,152.215426 C127.301315,153.165277 125.702846,160.325128 125.702846,160.325128 C125.702846,160.325128 118.30412,154.710681 117.355014,158.453809" id="Fill-11" fill="#FFFFFF"></path>
                <path d="M117.355014,158.453809 C117.355014,158.453809 122.152377,165.614638 121.203271,176.518596 C120.228248,187.422553 113.506758,212.675085 142.994084,216.418213 C172.481411,220.160851 174.10824,193.362915 173.782581,192.738489 C173.458389,192.115043 171.208601,159.701191 176.980986,160.325128 C176.980986,160.325128 157.412577,163.119383 160.313194,166.564489 C163.186429,169.981213 151.341916,162.197915 157.11479,154.710681 C157.11479,154.710681 139.145828,157.205936 137.221699,162.197915 C137.221699,162.197915 131.773018,151.293957 129.524697,152.215426 C127.301315,153.165277 125.702846,160.325128 125.702846,160.325128 C125.702846,160.325128 118.30412,154.710681 117.355014,158.453809 L117.355014,158.453809 Z" id="Stroke-12" stroke="#FFFFFF" stroke-linecap="round" stroke-linejoin="round"></path>
                <path d="M148.388,209.556383 L148.388,320.330255" id="Fill-13" fill="#FFFFFF"></path>
                <path d="M148,216.522579 L148,339.721737" id="Stroke-14" stroke="#FFFFFF" stroke-width="5" stroke-linecap="round" stroke-linejoin="round"></path>
            </g>
        </g>
    </g>
</svg>